<svg width="370" height="66" viewBox="0 0 370 66" fill="none" xmlns="http://www.w3.org/2000/svg">
<path d="M39.8016 60.3857V65H3.81035V60.3857H39.8016ZM5.43633 1.01562V65H0.0310516V1.01562H5.43633ZM35.3191 29.7119V34.3262H3.81035V29.7119H35.3191ZM39.5818 1.01562V5.67383H3.81035V1.01562H39.5818ZM90.2297 45.0488H95.635C95.1955 49.3555 94.009 53.0762 92.0754 56.2109C90.1418 59.3164 87.5051 61.7041 84.1652 63.374C80.8254 65.0439 76.7971 65.8789 72.0803 65.8789C68.4475 65.8789 65.1516 65.1904 62.1926 63.8135C59.2629 62.4365 56.7434 60.4883 54.634 57.9688C52.5246 55.4199 50.8986 52.373 49.7561 48.8281C48.6135 45.2832 48.0422 41.3428 48.0422 37.0068V29.0088C48.0422 24.6729 48.6135 20.7471 49.7561 17.2314C50.8986 13.6865 52.5393 10.6396 54.6779 8.09082C56.8166 5.54199 59.3801 3.5791 62.3684 2.20215C65.3566 0.825195 68.7258 0.136719 72.4758 0.136719C77.0168 0.136719 80.9426 0.97168 84.2531 2.6416C87.5637 4.28223 90.1711 6.65527 92.0754 9.76074C94.009 12.8662 95.1955 16.6162 95.635 21.0107H90.2297C89.8195 17.5537 88.9113 14.624 87.5051 12.2217C86.0988 9.81934 84.1506 7.98828 81.6603 6.72852C79.1994 5.43945 76.1379 4.79492 72.4758 4.79492C69.4875 4.79492 66.8215 5.36621 64.4777 6.50879C62.134 7.65137 60.1418 9.29199 58.5012 11.4307C56.8605 13.54 55.6008 16.0742 54.7219 19.0332C53.8723 21.9922 53.4475 25.2881 53.4475 28.9209V37.0068C53.4475 40.5225 53.8576 43.7598 54.6779 46.7188C55.4982 49.6777 56.6994 52.2412 58.2814 54.4092C59.8928 56.5771 61.8557 58.2617 64.1701 59.4629C66.4846 60.6641 69.1213 61.2646 72.0803 61.2646C75.8596 61.2646 79.009 60.6641 81.5285 59.4629C84.0773 58.2324 86.0549 56.416 87.4611 54.0137C88.8674 51.6113 89.7902 48.623 90.2297 45.0488ZM155.16 29.5801V36.4355C155.16 40.918 154.574 44.9756 153.402 48.6084C152.259 52.2119 150.589 55.3027 148.392 57.8809C146.224 60.459 143.617 62.4365 140.57 63.8135C137.523 65.1904 134.095 65.8789 130.287 65.8789C126.566 65.8789 123.168 65.1904 120.091 63.8135C117.045 62.4365 114.422 60.459 112.225 57.8809C110.028 55.3027 108.329 52.2119 107.128 48.6084C105.926 44.9756 105.326 40.918 105.326 36.4355V29.5801C105.326 25.0977 105.912 21.0547 107.084 17.4512C108.285 13.8184 109.984 10.7129 112.181 8.13477C114.379 5.55664 117.001 3.5791 120.047 2.20215C123.094 0.825195 126.478 0.136719 130.199 0.136719C134.007 0.136719 137.435 0.825195 140.482 2.20215C143.529 3.5791 146.151 5.55664 148.348 8.13477C150.546 10.7129 152.23 13.8184 153.402 17.4512C154.574 21.0547 155.16 25.0977 155.16 29.5801ZM149.798 36.4355V29.4922C149.798 25.7129 149.359 22.3145 148.48 19.2969C147.63 16.2793 146.356 13.7012 144.657 11.5625C142.987 9.42383 140.936 7.7832 138.504 6.64062C136.073 5.49805 133.304 4.92676 130.199 4.92676C127.181 4.92676 124.471 5.49805 122.069 6.64062C119.667 7.7832 117.616 9.42383 115.917 11.5625C114.247 13.7012 112.958 16.2793 112.049 19.2969C111.171 22.3145 110.731 25.7129 110.731 29.4922V36.4355C110.731 40.2441 111.171 43.6719 112.049 46.7188C112.958 49.7363 114.261 52.3291 115.961 54.4971C117.66 56.6357 119.711 58.2764 122.113 59.4189C124.545 60.5615 127.269 61.1328 130.287 61.1328C133.421 61.1328 136.19 60.5615 138.592 59.4189C140.995 58.2764 143.031 56.6357 144.701 54.4971C146.371 52.3291 147.63 49.7363 148.48 46.7188C149.359 43.6719 149.798 40.2441 149.798 36.4355Z" fill="#46952C"/>
<path d="M206.95 53.1348V65H174.606V53.1348H206.95ZM180.1 1.01562V65H164.675V1.01562H180.1ZM211.851 1.01562L223.628 28.7891L235.45 1.01562H252.061L231.495 42.0166V65H215.806V42.0166L195.196 1.01562H211.851ZM308.685 31.7334V34.3262C308.685 39.2188 307.997 43.6133 306.62 47.5098C305.272 51.377 303.353 54.6875 300.863 57.4414C298.373 60.166 295.429 62.2607 292.03 63.7256C288.632 65.1611 284.882 65.8789 280.78 65.8789C276.649 65.8789 272.87 65.1611 269.442 63.7256C266.044 62.2607 263.085 60.166 260.565 57.4414C258.075 54.6875 256.141 51.377 254.764 47.5098C253.417 43.6133 252.743 39.2188 252.743 34.3262V31.7334C252.743 26.8408 253.417 22.4463 254.764 18.5498C256.141 14.6533 258.06 11.3428 260.521 8.61816C263.012 5.86426 265.956 3.76953 269.354 2.33398C272.782 0.869141 276.561 0.136719 280.692 0.136719C284.794 0.136719 288.544 0.869141 291.942 2.33398C295.37 3.76953 298.329 5.86426 300.819 8.61816C303.309 11.3428 305.243 14.6533 306.62 18.5498C307.997 22.4463 308.685 26.8408 308.685 31.7334ZM293.041 34.3262V31.6455C293.041 28.4814 292.763 25.6982 292.206 23.2959C291.679 20.8643 290.888 18.8281 289.833 17.1875C288.778 15.5469 287.474 14.3164 285.922 13.4961C284.398 12.6465 282.655 12.2217 280.692 12.2217C278.641 12.2217 276.854 12.6465 275.331 13.4961C273.807 14.3164 272.533 15.5469 271.508 17.1875C270.482 18.8281 269.706 20.8643 269.179 23.2959C268.68 25.6982 268.431 28.4814 268.431 31.6455V34.3262C268.431 37.4609 268.68 40.2441 269.179 42.6758C269.706 45.0781 270.482 47.1143 271.508 48.7842C272.562 50.4541 273.851 51.7139 275.375 52.5635C276.928 53.4131 278.729 53.8379 280.78 53.8379C282.743 53.8379 284.486 53.4131 286.01 52.5635C287.533 51.7139 288.807 50.4541 289.833 48.7842C290.888 47.1143 291.679 45.0781 292.206 42.6758C292.763 40.2441 293.041 37.4609 293.041 34.3262ZM369.221 1.01562V65H353.84L331.208 25.1855V65H315.783V1.01562H331.208L353.84 40.8301V1.01562H369.221Z" fill="black"/>
</svg>
