<svg width="50" height="50" viewBox="0 0 50 50" fill="none" xmlns="http://www.w3.org/2000/svg">
<path d="M9.375 3.125H40.625C44.0625 3.125 46.875 5.9375 46.875 9.375V40.625C46.875 44.0625 44.0625 46.875 40.625 46.875H9.375C5.9375 46.875 3.125 44.0625 3.125 40.625V9.375C3.125 5.9375 5.9375 3.125 9.375 3.125Z" fill="black"/>
<path fill-rule="evenodd" clip-rule="evenodd" d="M20.625 25.1563V40.3125C20.625 40.4687 20.7813 40.7813 21.0938 40.7813H27.1875C27.5 40.7813 27.6563 40.625 27.6563 40.3125V25H32.0313C32.1875 25 32.5 24.8438 32.5 24.6875L32.9688 20C32.9688 19.6875 32.8125 19.5312 32.5 19.5312H27.6563V16.25C27.6563 15.4687 28.2813 14.8438 29.2188 14.8438H32.6563C32.9688 14.8438 33.125 14.6875 33.125 14.375V9.84375C32.8125 9.53125 32.6563 9.375 32.3438 9.375H26.7188C23.4375 9.375 20.625 11.875 20.625 15V19.5312H17.6563C17.3438 19.5312 17.1875 19.6875 17.1875 20V24.6875C17.1875 24.8438 17.3438 25.1563 17.6563 25.1563H20.625Z" fill="white"/>
</svg>
