<svg width="183" height="342" viewBox="0 0 183 342" fill="none" xmlns="http://www.w3.org/2000/svg">
<line x1="51.5" y1="301" x2="51.5" y2="102" stroke="black"/>
<line x1="71.5" y1="301" x2="71.5" y2="101" stroke="black"/>
<line x1="121.5" y1="101" x2="121.5" y2="306" stroke="black"/>
<line x1="51" y1="101.5" x2="72" y2="101.5" stroke="black"/>
<line x1="71" y1="101.5" x2="121" y2="101.5" stroke="black"/>
<line x1="51.227" y1="101.125" x2="72.7836" y2="63.8748" stroke="black" stroke-width="0.5"/>
<line x1="72.4998" y1="64.0132" x2="71.4998" y2="102.013" stroke="black"/>
<path d="M72.002 63.6982L121.111 63.3624" stroke="black" stroke-width="0.5"/>
<line x1="121.5" y1="102" x2="121.5" y2="63" stroke="black"/>
<line x1="80.7502" y1="67.9906" x2="82.7502" y2="14.9906" stroke="black" stroke-width="0.5"/>
<line x1="83.75" y1="68.0047" x2="82.75" y2="15.0047" stroke="black" stroke-width="0.5"/>
<line x1="72" y1="67.75" x2="122" y2="67.75" stroke="black" stroke-width="0.5"/>
<line x1="74.5" y1="69.5" x2="119.5" y2="69.5" stroke="#E63A52" stroke-linecap="round" stroke-dasharray="2 2"/>
<line x1="74.5" y1="71.5" x2="119.5" y2="71.5" stroke="black" stroke-linecap="round" stroke-dasharray="2 2"/>
<line x1="74.5" y1="75.5" x2="119.5" y2="75.5" stroke="#E63A52" stroke-linecap="round" stroke-dasharray="2 2"/>
<line x1="73.5" y1="85.5" x2="118.5" y2="85.5" stroke="#E63A52" stroke-linecap="round" stroke-dasharray="2 2"/>
<line x1="74.5" y1="87.5" x2="119.5" y2="87.5" stroke="#E63A52" stroke-linecap="round" stroke-dasharray="2 2"/>
<line x1="73.5" y1="99.5" x2="118.5" y2="99.5" stroke="#E63A52" stroke-linecap="round" stroke-dasharray="2 2"/>
<line x1="74.5" y1="95.5" x2="119.5" y2="95.5" stroke="#E63A52" stroke-linecap="round" stroke-dasharray="2 2"/>
<line x1="74.5" y1="89.5" x2="119.5" y2="89.5" stroke="#E63A52" stroke-linecap="round" stroke-dasharray="2 2"/>
<line x1="73.5" y1="97.5" x2="118.5" y2="97.5" stroke="#E63A52" stroke-linecap="round" stroke-dasharray="2 2"/>
<line x1="73.5" y1="93.5" x2="118.5" y2="93.5" stroke="#E63A52" stroke-linecap="round" stroke-dasharray="2 2"/>
<line x1="73.5" y1="91.5" x2="118.5" y2="91.5" stroke="#E63A52" stroke-linecap="round" stroke-dasharray="2 2"/>
<line x1="74.5" y1="83.5" x2="119.5" y2="83.5" stroke="#E63A52" stroke-linecap="round" stroke-dasharray="2 2"/>
<line x1="75.5" y1="81.5" x2="120.5" y2="81.5" stroke="#E63A52" stroke-linecap="round" stroke-dasharray="2 2"/>
<line x1="73.5" y1="79.5" x2="118.5" y2="79.5" stroke="#E63A52" stroke-linecap="round" stroke-dasharray="2 2"/>
<line x1="75.5" y1="77.5" x2="120.5" y2="77.5" stroke="#E63A52" stroke-linecap="round" stroke-dasharray="2 2"/>
<line x1="74.5" y1="71.5" x2="119.5" y2="71.5" stroke="#E63A52" stroke-linecap="round" stroke-dasharray="2 2"/>
<line x1="74.5" y1="73.5" x2="119.5" y2="73.5" stroke="#E63A52" stroke-linecap="round" stroke-dasharray="2 2"/>
<line x1="54.5" y1="99.5" x2="69.5" y2="99.5" stroke="black" stroke-linecap="round" stroke-dasharray="2 2"/>
<line x1="54.5" y1="99.5" x2="69.5" y2="99.5" stroke="#E63A52" stroke-linecap="round" stroke-dasharray="2 2"/>
<line x1="56.5" y1="97.5" x2="69.5" y2="97.5" stroke="#E63A52" stroke-linecap="round" stroke-dasharray="2 2"/>
<line x1="70.5" y1="69.5" x2="85.5" y2="69.5" stroke="#E63A52" stroke-linecap="round" stroke-dasharray="2 2"/>
<line x1="69.5" y1="71.5" x2="70.5" y2="71.5" stroke="#E63A52" stroke-linecap="round" stroke-dasharray="2 2"/>
<line x1="58.4976" y1="91.561" x2="70.4976" y2="91.5024" stroke="#E63A52" stroke-linecap="round" stroke-dasharray="2 2"/>
<line x1="58.4976" y1="91.561" x2="70.4976" y2="91.5024" stroke="#E63A52" stroke-linecap="round" stroke-dasharray="2 2"/>
<line x1="66.4936" y1="77.5572" x2="70.4937" y2="77.5064" stroke="#E63A52" stroke-linecap="round" stroke-dasharray="2 2"/>
<line x1="65.4947" y1="79.5582" x2="70.4947" y2="79.5053" stroke="#E63A52" stroke-linecap="round" stroke-dasharray="2 2"/>
<line x1="64.4954" y1="81.559" x2="70.4955" y2="81.5046" stroke="#E63A52" stroke-linecap="round" stroke-dasharray="2 2"/>
<line x1="63.496" y1="83.5595" x2="70.496" y2="83.504" stroke="#E63A52" stroke-linecap="round" stroke-dasharray="2 2"/>
<line x1="58.4976" y1="91.561" x2="70.4976" y2="91.5024" stroke="#E63A52" stroke-linecap="round" stroke-dasharray="2 2"/>
<line x1="67.492" y1="75.5556" x2="70.4921" y2="75.508" stroke="#E63A52" stroke-linecap="round" stroke-dasharray="2 2"/>
<line x1="62.4965" y1="85.56" x2="70.4965" y2="85.5035" stroke="#E63A52" stroke-linecap="round" stroke-dasharray="2 2"/>
<line x1="61.4968" y1="87.5603" x2="70.4968" y2="87.5032" stroke="#E63A52" stroke-linecap="round" stroke-dasharray="2 2"/>
<line x1="60.4971" y1="89.5606" x2="70.4971" y2="89.5029" stroke="#E63A52" stroke-linecap="round" stroke-dasharray="2 2"/>
<line x1="57.5" y1="93.5" x2="70.5" y2="93.5" stroke="#E63A52" stroke-linecap="round" stroke-dasharray="2 2"/>
<line x1="57.5" y1="93.5" x2="70.5" y2="93.5" stroke="#E63A52" stroke-linecap="round" stroke-dasharray="2 2"/>
<line x1="57.5" y1="93.5" x2="70.5" y2="93.5" stroke="#E63A52" stroke-linecap="round" stroke-dasharray="2 2"/>
<line x1="57.5" y1="93.5" x2="70.5" y2="93.5" stroke="#E63A52" stroke-linecap="round" stroke-dasharray="2 2"/>
<line x1="56.5" y1="95.5" x2="69.5" y2="95.5" stroke="#E63A52" stroke-linecap="round" stroke-dasharray="2 2"/>
<line x1="68.5" y1="73.5" x2="70.5" y2="73.5" stroke="#E63A52" stroke-linecap="round" stroke-dasharray="2 2"/>
<line x1="74.25" y1="64" x2="74.25" y2="68" stroke="black" stroke-width="0.5"/>
<line x1="99.25" y1="64" x2="99.25" y2="68" stroke="black" stroke-width="0.5"/>
<line x1="96.25" y1="64" x2="96.25" y2="68" stroke="black" stroke-width="0.5"/>
<line x1="93.25" y1="64" x2="93.25" y2="68" stroke="black" stroke-width="0.5"/>
<line x1="89.25" y1="64" x2="89.25" y2="68" stroke="black" stroke-width="0.5"/>
<line x1="86.25" y1="64" x2="86.25" y2="68" stroke="black" stroke-width="0.5"/>
<line x1="82.25" y1="64" x2="82.25" y2="68" stroke="black" stroke-width="0.5"/>
<line x1="77.25" y1="64" x2="77.25" y2="68" stroke="black" stroke-width="0.5"/>
<line x1="118.25" y1="64" x2="118.25" y2="68" stroke="black" stroke-width="0.5"/>
<line x1="114.25" y1="64" x2="114.25" y2="68" stroke="black" stroke-width="0.5"/>
<line x1="111.25" y1="64" x2="111.25" y2="68" stroke="black" stroke-width="0.5"/>
<line x1="108.25" y1="64" x2="108.25" y2="68" stroke="black" stroke-width="0.5"/>
<line x1="105.25" y1="64" x2="105.25" y2="68" stroke="black" stroke-width="0.5"/>
<line x1="102.25" y1="64" x2="102.25" y2="68" stroke="black" stroke-width="0.5"/>
</svg>
