<svg width="50" height="50" viewBox="0 0 50 50" fill="none" xmlns="http://www.w3.org/2000/svg">
<path fill-rule="evenodd" clip-rule="evenodd" d="M25 37.5C31.9035 37.5 37.5 31.9035 37.5 25C37.5 18.0964 31.9035 12.5 25 12.5C18.0964 12.5 12.5 18.0964 12.5 25C12.5 31.9035 18.0964 37.5 25 37.5ZM25 33.3333C29.6023 33.3333 33.3333 29.6023 33.3333 25C33.3333 20.3976 29.6023 16.6667 25 16.6667C20.3976 16.6667 16.6667 20.3976 16.6667 25C16.6667 29.6023 20.3976 33.3333 25 33.3333Z" fill="#0F0F0F"/>
<path d="M37.4993 10.416C36.3487 10.416 35.416 11.3488 35.416 12.4993C35.416 13.6499 36.3487 14.5827 37.4993 14.5827C38.65 14.5827 39.5827 13.6499 39.5827 12.4993C39.5827 11.3488 38.65 10.416 37.4993 10.416Z" fill="#0F0F0F"/>
<path fill-rule="evenodd" clip-rule="evenodd" d="M3.4464 8.90911C2.08398 11.583 2.08398 15.0833 2.08398 22.084V27.9173C2.08398 34.9179 2.08398 38.4184 3.4464 41.0921C4.64482 43.4442 6.55707 45.3565 8.90911 46.5548C11.583 47.9173 15.0833 47.9173 22.084 47.9173H27.9173C34.9179 47.9173 38.4184 47.9173 41.0921 46.5548C43.4442 45.3565 45.3565 43.4442 46.5548 41.0921C47.9173 38.4184 47.9173 34.9179 47.9173 27.9173V22.084C47.9173 15.0833 47.9173 11.583 46.5548 8.90911C45.3565 6.55707 43.4442 4.64482 41.0921 3.4464C38.4184 2.08398 34.9179 2.08398 27.9173 2.08398H22.084C15.0833 2.08398 11.583 2.08398 8.90911 3.4464C6.55707 4.64482 4.64482 6.55707 3.4464 8.90911ZM27.9173 6.25065H22.084C18.5149 6.25065 16.0887 6.2539 14.2133 6.40711C12.3866 6.55636 11.4524 6.82688 10.8007 7.15892C9.23271 7.95788 7.95788 9.23271 7.15892 10.8007C6.82688 11.4524 6.55636 12.3866 6.40711 14.2133C6.2539 16.0887 6.25065 18.5149 6.25065 22.084V27.9173C6.25065 31.4865 6.2539 33.9125 6.40711 35.7879C6.55636 37.6148 6.82688 38.549 7.15892 39.2006C7.95788 40.7686 9.23271 42.0434 10.8007 42.8423C11.4524 43.1744 12.3866 43.445 14.2133 43.5942C16.0887 43.7473 18.5149 43.7506 22.084 43.7506H27.9173C31.4865 43.7506 33.9125 43.7473 35.7879 43.5942C37.6148 43.445 38.549 43.1744 39.2006 42.8423C40.7686 42.0434 42.0434 40.7686 42.8423 39.2006C43.1744 38.549 43.445 37.6148 43.5942 35.7879C43.7473 33.9125 43.7506 31.4865 43.7506 27.9173V22.084C43.7506 18.5149 43.7473 16.0887 43.5942 14.2133C43.445 12.3866 43.1744 11.4524 42.8423 10.8007C42.0434 9.23271 40.7686 7.95788 39.2006 7.15892C38.549 6.82688 37.6148 6.55636 35.7879 6.40711C33.9125 6.2539 31.4865 6.25065 27.9173 6.25065Z" fill="#0F0F0F"/>
</svg>
