<svg width="50" height="50" viewBox="0 0 50 50" fill="none" xmlns="http://www.w3.org/2000/svg">
<path d="M26.0247 1.60742C28.5825 1.56836 31.1215 1.58867 33.659 1.56836C33.7434 4.7418 35.0309 7.59805 37.0794 9.71367L37.0762 9.71055C39.2809 11.6965 42.1497 12.984 45.3122 13.2027L45.3559 13.2059V21.0746C42.3684 20.9996 39.559 20.3105 37.0262 19.1262L37.1544 19.1793C35.9294 18.5902 34.8934 17.9855 33.909 17.3105L33.9903 17.3637C33.9715 23.0652 34.009 28.7668 33.9512 34.448C33.7903 37.3434 32.8278 39.984 31.284 42.1887L31.3153 42.1402C28.734 45.8371 24.5528 48.2637 19.7981 48.4074H19.7762C19.584 48.4168 19.3575 48.4215 19.1294 48.4215C16.4262 48.4215 13.8997 47.6684 11.7465 46.3605L11.809 46.3965C7.8903 44.0387 5.18717 40.0043 4.68717 35.3121L4.68092 35.248C4.64186 34.2715 4.62311 33.2949 4.66217 32.3387C5.4278 24.8715 11.684 19.0949 19.2887 19.0949C20.1434 19.0949 20.9809 19.1684 21.795 19.3074L21.7075 19.2949C21.7465 22.184 21.6294 25.0746 21.6294 27.9637C20.9684 27.7246 20.2059 27.5855 19.4106 27.5855C16.4919 27.5855 14.0091 29.4512 13.0903 32.0559L13.0762 32.1027C12.8684 32.7699 12.7481 33.5371 12.7481 34.3309C12.7481 34.6527 12.7684 34.9715 12.8059 35.284L12.8028 35.2465C13.3216 38.4434 16.0622 40.8559 19.3669 40.8559C19.4622 40.8559 19.5559 40.8543 19.6497 40.8496H19.6356C21.9216 40.7809 23.9059 39.5512 25.0278 37.734L25.0434 37.7059C25.4606 37.1246 25.7465 36.4215 25.8419 35.6574L25.8434 35.6355C26.0387 32.1402 25.9606 28.6652 25.9794 25.1699C25.9981 17.3012 25.9606 9.45117 26.0184 1.60273L26.0247 1.60742Z" fill="black"/>
</svg>
